<svg width="15" height="15" viewBox="0 0 15 15" fill="none" xmlns="http://www.w3.org/2000/svg">
<path d="M8.83 10.9475C9.02833 11.0292 9.21803 11.0322 9.3991 10.9566C9.5797 10.8805 9.69917 10.7492 9.7575 10.5625C9.92083 10.0725 10.0405 9.57363 10.1166 9.0659C10.1922 8.55863 10.23 8.03667 10.23 7.5C10.23 6.96333 10.1922 6.44113 10.1166 5.9334C10.0405 5.42613 9.92083 4.9275 9.7575 4.4375C9.69917 4.25083 9.57667 4.11667 9.39 4.035C9.20333 3.95333 9.01083 3.95917 8.8125 4.0525C8.64917 4.1225 8.5297 4.24197 8.4541 4.4109C8.37803 4.5803 8.36917 4.7525 8.4275 4.9275C8.55583 5.33583 8.655 5.75583 8.725 6.1875C8.795 6.61917 8.83 7.05667 8.83 7.5C8.83 7.94333 8.795 8.38083 8.725 8.8125C8.655 9.24417 8.55583 9.66417 8.4275 10.0725C8.36917 10.2475 8.38083 10.4197 8.4625 10.5891C8.54417 10.758 8.66667 10.8775 8.83 10.9475ZM6.5725 10.0375C6.75917 10.1075 6.94 10.1047 7.115 10.0291C7.29 9.95303 7.40667 9.8275 7.465 9.6525C7.57 9.31417 7.64887 8.96417 7.7016 8.6025C7.75387 8.24083 7.78 7.87333 7.78 7.5C7.78 7.12667 7.75387 6.75917 7.7016 6.3975C7.64887 6.03583 7.57 5.68583 7.465 5.3475C7.40667 5.1725 7.29 5.04417 7.115 4.9625C6.94 4.88083 6.75917 4.88083 6.5725 4.9625C6.40917 5.0325 6.28667 5.15197 6.205 5.3209C6.12333 5.4903 6.11167 5.67417 6.17 5.8725C6.25167 6.14083 6.3072 6.40917 6.3366 6.6775C6.36553 6.94583 6.38 7.22 6.38 7.5C6.38 7.78 6.36553 8.05417 6.3366 8.3225C6.3072 8.59083 6.25167 8.85917 6.17 9.1275C6.11167 9.32583 6.12053 9.5097 6.1966 9.6791C6.2722 9.84803 6.3975 9.9675 6.5725 10.0375ZM4.2975 9.075C4.49583 9.15667 4.6825 9.15667 4.8575 9.075C5.0325 8.99333 5.14333 8.85333 5.19 8.655C5.23667 8.46833 5.27167 8.27863 5.295 8.0859C5.31833 7.89363 5.33 7.69833 5.33 7.5C5.33 7.30167 5.31833 7.10613 5.295 6.9134C5.27167 6.72113 5.23667 6.53167 5.19 6.345C5.14333 6.14667 5.0325 6.00667 4.8575 5.925C4.6825 5.84333 4.49583 5.84333 4.2975 5.925C4.13417 5.98333 4.01167 6.0972 3.93 6.2666C3.84833 6.43553 3.825 6.61333 3.86 6.8C3.88333 6.91667 3.90083 7.03333 3.9125 7.15C3.92417 7.26667 3.93 7.38333 3.93 7.5C3.93 7.61667 3.92417 7.73333 3.9125 7.85C3.90083 7.96667 3.88333 8.08333 3.86 8.2C3.825 8.38667 3.84833 8.56167 3.93 8.725C4.01167 8.88833 4.13417 9.005 4.2975 9.075ZM7.5 14.5C6.53167 14.5 5.62167 14.3161 4.77 13.9484C3.91833 13.5811 3.1775 13.0825 2.5475 12.4525C1.9175 11.8225 1.41887 11.0817 1.0516 10.23C0.683867 9.37833 0.5 8.46833 0.5 7.5C0.5 6.53167 0.683867 5.62167 1.0516 4.77C1.41887 3.91833 1.9175 3.1775 2.5475 2.5475C3.1775 1.9175 3.91833 1.41863 4.77 1.0509C5.62167 0.683633 6.53167 0.5 7.5 0.5C8.46833 0.5 9.37833 0.683633 10.23 1.0509C11.0817 1.41863 11.8225 1.9175 12.4525 2.5475C13.0825 3.1775 13.5811 3.91833 13.9484 4.77C14.3161 5.62167 14.5 6.53167 14.5 7.5C14.5 8.46833 14.3161 9.37833 13.9484 10.23C13.5811 11.0817 13.0825 11.8225 12.4525 12.4525C11.8225 13.0825 11.0817 13.5811 10.23 13.9484C9.37833 14.3161 8.46833 14.5 7.5 14.5Z" fill="#75FF8C"/>
</svg>
