<svg width="40" height="40" viewBox="0 0 40 40" fill="none" xmlns="http://www.w3.org/2000/svg">
<rect width="40" height="40" rx="20" fill="white" fill-opacity="0.1"/>
<rect x="0.5" y="0.5" width="39" height="39" rx="19.5" stroke="white" stroke-opacity="0.24"/>
<path d="M28.3333 23.4915C28.3333 26.5248 26.525 28.3332 23.4916 28.3332H22.5C22.0416 28.3332 21.6666 27.9582 21.6666 27.4998V22.6915C21.6666 22.4665 21.85 22.2748 22.075 22.2748L23.5416 22.2498C23.6583 22.2415 23.7583 22.1582 23.7833 22.0415L24.075 20.4498C24.1 20.2998 23.9833 20.1582 23.825 20.1582L22.05 20.1832C21.8166 20.1832 21.6333 19.9998 21.625 19.7748L21.5916 17.7332C21.5916 17.5998 21.7 17.4832 21.8416 17.4832L23.8416 17.4498C23.9833 17.4498 24.0916 17.3415 24.0916 17.1998L24.0583 15.1998C24.0583 15.0582 23.95 14.9498 23.8083 14.9498L21.5583 14.9832C20.175 15.0082 19.075 16.1415 19.1 17.5248L19.1416 19.8165C19.15 20.0498 18.9666 20.2332 18.7333 20.2415L17.7333 20.2582C17.5916 20.2582 17.4833 20.3665 17.4833 20.5082L17.5083 22.0915C17.5083 22.2332 17.6166 22.3415 17.7583 22.3415L18.7583 22.3248C18.9916 22.3248 19.175 22.5082 19.1833 22.7332L19.2583 27.4832C19.2666 27.9498 18.8916 28.3332 18.4249 28.3332H16.5083C13.475 28.3332 11.6666 26.5248 11.6666 23.4832V16.5082C11.6666 13.4748 13.475 11.6665 16.5083 11.6665H23.4916C26.525 11.6665 28.3333 13.4748 28.3333 16.5082V23.4915Z" fill="white" fill-opacity="0.8"/>
</svg>
