<svg width="33" height="32" viewBox="0 0 33 32" fill="none" xmlns="http://www.w3.org/2000/svg">
<rect x="0.5" width="32" height="32" rx="16" fill="#172602"/>
<path d="M11.4196 10.956L9.94963 9.473M19.2586 10.956L20.7286 9.473M9.94863 20.353L11.4186 18.869M15.3386 8.979V7M9.45863 14.913H7.49963M21.3746 20.836L25.1886 19.33C25.2807 19.2932 25.3595 19.2296 25.4151 19.1475C25.4707 19.0655 25.5004 18.9686 25.5004 18.8695C25.5004 18.7704 25.4707 18.6735 25.4151 18.5915C25.3595 18.5094 25.2807 18.4458 25.1886 18.409L16.0236 14.794C15.9344 14.7595 15.8371 14.7517 15.7435 14.7717C15.6499 14.7916 15.5642 14.8384 15.4968 14.9063C15.4294 14.9742 15.3833 15.0603 15.3641 15.154C15.3449 15.2478 15.3534 15.345 15.3886 15.434L18.9706 24.685C19.1326 25.105 19.7206 25.105 19.8826 24.685L21.3746 20.836Z" stroke="#83CD20" stroke-width="1.5" stroke-linecap="round" stroke-linejoin="round"/>
</svg>
