<svg width="11" height="9" viewBox="0 0 11 9" fill="none" xmlns="http://www.w3.org/2000/svg">
<path d="M9.5 0C9.76522 0 10.0196 0.105357 10.2071 0.292893C10.3946 0.48043 10.5 0.734784 10.5 1V8C10.5 8.26522 10.3946 8.51957 10.2071 8.70711C10.0196 8.89464 9.76522 9 9.5 9H1.5C1.23478 9 0.98043 8.89464 0.792893 8.70711C0.605357 8.51957 0.5 8.26522 0.5 8V1C0.5 0.734784 0.605357 0.48043 0.792893 0.292893C0.98043 0.105357 1.23478 0 1.5 0H9.5ZM9.5 1H1.5V8H1.9645L6.6185 3.346C6.67654 3.28795 6.74545 3.24189 6.82128 3.21047C6.89712 3.17905 6.97841 3.16288 7.0605 3.16288C7.14259 3.16288 7.22388 3.17905 7.29972 3.21047C7.37555 3.24189 7.44446 3.28795 7.5025 3.346L9.5 5.343V1ZM3.25 2C3.44891 2 3.63968 2.07902 3.78033 2.21967C3.92098 2.36032 4 2.55109 4 2.75C4 2.94891 3.92098 3.13968 3.78033 3.28033C3.63968 3.42098 3.44891 3.5 3.25 3.5C3.05109 3.5 2.86032 3.42098 2.71967 3.28033C2.57902 3.13968 2.5 2.94891 2.5 2.75C2.5 2.55109 2.57902 2.36032 2.71967 2.21967C2.86032 2.07902 3.05109 2 3.25 2Z" fill="#75FF8C"/>
</svg>
