<svg width="1440" height="795" viewBox="0 0 1440 795" fill="none" xmlns="http://www.w3.org/2000/svg">
<g clip-path="url(#clip0_322_281)">
<rect width="1440" height="795" fill="#0F2028"/>
<g opacity="0.5" filter="url(#filter0_f_322_281)">
<circle cx="451.5" cy="394.5" r="176.5" fill="#D2F801" fill-opacity="0.34"/>
</g>
<g opacity="0.5" filter="url(#filter1_f_322_281)">
<circle cx="1289.42" cy="54.9079" r="124.908" fill="#D2F801"/>
</g>
<g opacity="0.5" clip-path="url(#clip1_322_281)">
<mask id="mask0_322_281" style="mask-type:alpha" maskUnits="userSpaceOnUse" x="0" y="99" width="1440" height="1441">
<rect width="1440" height="1197" transform="translate(0 99.0054)" fill="url(#paint0_radial_322_281)"/>
</mask>
<g mask="url(#mask0_322_281)">
<g clip-path="url(#clip2_322_281)">
<mask id="path-5-inside-1_322_281" fill="white">
<path d="M-48 99.0054H48V195.005H-48V99.0054Z"/>
</mask>
<path d="M48 195.005V196.005H49V195.005H48ZM48 99.0054H47V195.005H48H49V99.0054H48ZM48 195.005V194.005H-48V195.005V196.005H48V195.005Z" fill="#D0D5DD" fill-opacity="0.32" mask="url(#path-5-inside-1_322_281)"/>
<mask id="path-7-inside-2_322_281" fill="white">
<path d="M48 99.0054H144V195.005H48V99.0054Z"/>
</mask>
<path d="M144 195.005V196.005H145V195.005H144ZM144 99.0054H143V195.005H144H145V99.0054H144ZM144 195.005V194.005H48V195.005V196.005H144V195.005Z" fill="#D0D5DD" fill-opacity="0.32" mask="url(#path-7-inside-2_322_281)"/>
<mask id="path-9-inside-3_322_281" fill="white">
<path d="M144 99.0054H240V195.005H144V99.0054Z"/>
</mask>
<path d="M240 195.005V196.005H241V195.005H240ZM240 99.0054H239V195.005H240H241V99.0054H240ZM240 195.005V194.005H144V195.005V196.005H240V195.005Z" fill="#D0D5DD" fill-opacity="0.32" mask="url(#path-9-inside-3_322_281)"/>
<mask id="path-11-inside-4_322_281" fill="white">
<path d="M240 99.0054H336V195.005H240V99.0054Z"/>
</mask>
<path d="M336 195.005V196.005H337V195.005H336ZM336 99.0054H335V195.005H336H337V99.0054H336ZM336 195.005V194.005H240V195.005V196.005H336V195.005Z" fill="#D0D5DD" fill-opacity="0.32" mask="url(#path-11-inside-4_322_281)"/>
<mask id="path-13-inside-5_322_281" fill="white">
<path d="M336 99.0054H432V195.005H336V99.0054Z"/>
</mask>
<path d="M432 195.005V196.005H433V195.005H432ZM432 99.0054H431V195.005H432H433V99.0054H432ZM432 195.005V194.005H336V195.005V196.005H432V195.005Z" fill="#D0D5DD" fill-opacity="0.32" mask="url(#path-13-inside-5_322_281)"/>
<mask id="path-15-inside-6_322_281" fill="white">
<path d="M432 99.0054H528V195.005H432V99.0054Z"/>
</mask>
<path d="M528 195.005V196.005H529V195.005H528ZM528 99.0054H527V195.005H528H529V99.0054H528ZM528 195.005V194.005H432V195.005V196.005H528V195.005Z" fill="#D0D5DD" fill-opacity="0.32" mask="url(#path-15-inside-6_322_281)"/>
<mask id="path-17-inside-7_322_281" fill="white">
<path d="M528 99.0054H624V195.005H528V99.0054Z"/>
</mask>
<path d="M624 195.005V196.005H625V195.005H624ZM624 99.0054H623V195.005H624H625V99.0054H624ZM624 195.005V194.005H528V195.005V196.005H624V195.005Z" fill="#D0D5DD" fill-opacity="0.32" mask="url(#path-17-inside-7_322_281)"/>
<mask id="path-19-inside-8_322_281" fill="white">
<path d="M624 99.0054H720V195.005H624V99.0054Z"/>
</mask>
<path d="M720 195.005V196.005H721V195.005H720ZM720 99.0054H719V195.005H720H721V99.0054H720ZM720 195.005V194.005H624V195.005V196.005H720V195.005Z" fill="#D0D5DD" fill-opacity="0.32" mask="url(#path-19-inside-8_322_281)"/>
<mask id="path-21-inside-9_322_281" fill="white">
<path d="M720 99.0054H816V195.005H720V99.0054Z"/>
</mask>
<path d="M816 195.005V196.005H817V195.005H816ZM816 99.0054H815V195.005H816H817V99.0054H816ZM816 195.005V194.005H720V195.005V196.005H816V195.005Z" fill="#D0D5DD" fill-opacity="0.32" mask="url(#path-21-inside-9_322_281)"/>
<mask id="path-23-inside-10_322_281" fill="white">
<path d="M816 99.0054H912V195.005H816V99.0054Z"/>
</mask>
<path d="M912 195.005V196.005H913V195.005H912ZM912 99.0054H911V195.005H912H913V99.0054H912ZM912 195.005V194.005H816V195.005V196.005H912V195.005Z" fill="#D0D5DD" fill-opacity="0.32" mask="url(#path-23-inside-10_322_281)"/>
<mask id="path-25-inside-11_322_281" fill="white">
<path d="M912 99.0054H1008V195.005H912V99.0054Z"/>
</mask>
<path d="M1008 195.005V196.005H1009V195.005H1008ZM1008 99.0054H1007V195.005H1008H1009V99.0054H1008ZM1008 195.005V194.005H912V195.005V196.005H1008V195.005Z" fill="#D0D5DD" fill-opacity="0.32" mask="url(#path-25-inside-11_322_281)"/>
<mask id="path-27-inside-12_322_281" fill="white">
<path d="M1008 99.0054H1104V195.005H1008V99.0054Z"/>
</mask>
<path d="M1104 195.005V196.005H1105V195.005H1104ZM1104 99.0054H1103V195.005H1104H1105V99.0054H1104ZM1104 195.005V194.005H1008V195.005V196.005H1104V195.005Z" fill="#D0D5DD" fill-opacity="0.32" mask="url(#path-27-inside-12_322_281)"/>
<mask id="path-29-inside-13_322_281" fill="white">
<path d="M1104 99.0054H1200V195.005H1104V99.0054Z"/>
</mask>
<path d="M1200 195.005V196.005H1201V195.005H1200ZM1200 99.0054H1199V195.005H1200H1201V99.0054H1200ZM1200 195.005V194.005H1104V195.005V196.005H1200V195.005Z" fill="#D0D5DD" fill-opacity="0.32" mask="url(#path-29-inside-13_322_281)"/>
<mask id="path-31-inside-14_322_281" fill="white">
<path d="M1200 99.0054H1296V195.005H1200V99.0054Z"/>
</mask>
<path d="M1296 195.005V196.005H1297V195.005H1296ZM1296 99.0054H1295V195.005H1296H1297V99.0054H1296ZM1296 195.005V194.005H1200V195.005V196.005H1296V195.005Z" fill="#D0D5DD" fill-opacity="0.32" mask="url(#path-31-inside-14_322_281)"/>
<mask id="path-33-inside-15_322_281" fill="white">
<path d="M1296 99.0054H1392V195.005H1296V99.0054Z"/>
</mask>
<path d="M1392 195.005V196.005H1393V195.005H1392ZM1392 99.0054H1391V195.005H1392H1393V99.0054H1392ZM1392 195.005V194.005H1296V195.005V196.005H1392V195.005Z" fill="#D0D5DD" fill-opacity="0.32" mask="url(#path-33-inside-15_322_281)"/>
<mask id="path-35-inside-16_322_281" fill="white">
<path d="M1392 99.0054H1488V195.005H1392V99.0054Z"/>
</mask>
<path d="M1488 195.005V196.005H1489V195.005H1488ZM1488 99.0054H1487V195.005H1488H1489V99.0054H1488ZM1488 195.005V194.005H1392V195.005V196.005H1488V195.005Z" fill="#D0D5DD" fill-opacity="0.32" mask="url(#path-35-inside-16_322_281)"/>
<mask id="path-37-inside-17_322_281" fill="white">
<path d="M-48 195.005H48V291.005H-48V195.005Z"/>
</mask>
<path d="M48 291.005V292.005H49V291.005H48ZM48 195.005H47V291.005H48H49V195.005H48ZM48 291.005V290.005H-48V291.005V292.005H48V291.005Z" fill="#D0D5DD" fill-opacity="0.32" mask="url(#path-37-inside-17_322_281)"/>
<mask id="path-39-inside-18_322_281" fill="white">
<path d="M48 195.005H144V291.005H48V195.005Z"/>
</mask>
<path d="M144 291.005V292.005H145V291.005H144ZM144 195.005H143V291.005H144H145V195.005H144ZM144 291.005V290.005H48V291.005V292.005H144V291.005Z" fill="#D0D5DD" fill-opacity="0.32" mask="url(#path-39-inside-18_322_281)"/>
<mask id="path-41-inside-19_322_281" fill="white">
<path d="M144 195.005H240V291.005H144V195.005Z"/>
</mask>
<path d="M240 291.005V292.005H241V291.005H240ZM240 195.005H239V291.005H240H241V195.005H240ZM240 291.005V290.005H144V291.005V292.005H240V291.005Z" fill="#D0D5DD" fill-opacity="0.32" mask="url(#path-41-inside-19_322_281)"/>
<mask id="path-43-inside-20_322_281" fill="white">
<path d="M240 195.005H336V291.005H240V195.005Z"/>
</mask>
<path d="M240 195.005H336V291.005H240V195.005Z" fill="#F2F4F7" fill-opacity="0.1"/>
<path d="M336 291.005V292.005H337V291.005H336ZM336 195.005H335V291.005H336H337V195.005H336ZM336 291.005V290.005H240V291.005V292.005H336V291.005Z" fill="#D0D5DD" fill-opacity="0.32" mask="url(#path-43-inside-20_322_281)"/>
<mask id="path-45-inside-21_322_281" fill="white">
<path d="M336 195.005H432V291.005H336V195.005Z"/>
</mask>
<path d="M432 291.005V292.005H433V291.005H432ZM432 195.005H431V291.005H432H433V195.005H432ZM432 291.005V290.005H336V291.005V292.005H432V291.005Z" fill="#D0D5DD" fill-opacity="0.32" mask="url(#path-45-inside-21_322_281)"/>
<mask id="path-47-inside-22_322_281" fill="white">
<path d="M432 195.005H528V291.005H432V195.005Z"/>
</mask>
<path d="M528 291.005V292.005H529V291.005H528ZM528 195.005H527V291.005H528H529V195.005H528ZM528 291.005V290.005H432V291.005V292.005H528V291.005Z" fill="#D0D5DD" fill-opacity="0.32" mask="url(#path-47-inside-22_322_281)"/>
<mask id="path-49-inside-23_322_281" fill="white">
<path d="M528 195.005H624V291.005H528V195.005Z"/>
</mask>
<path d="M624 291.005V292.005H625V291.005H624ZM624 195.005H623V291.005H624H625V195.005H624ZM624 291.005V290.005H528V291.005V292.005H624V291.005Z" fill="#D0D5DD" fill-opacity="0.32" mask="url(#path-49-inside-23_322_281)"/>
<mask id="path-51-inside-24_322_281" fill="white">
<path d="M624 195.005H720V291.005H624V195.005Z"/>
</mask>
<path d="M720 291.005V292.005H721V291.005H720ZM720 195.005H719V291.005H720H721V195.005H720ZM720 291.005V290.005H624V291.005V292.005H720V291.005Z" fill="#D0D5DD" fill-opacity="0.32" mask="url(#path-51-inside-24_322_281)"/>
<mask id="path-53-inside-25_322_281" fill="white">
<path d="M720 195.005H816V291.005H720V195.005Z"/>
</mask>
<path d="M816 291.005V292.005H817V291.005H816ZM816 195.005H815V291.005H816H817V195.005H816ZM816 291.005V290.005H720V291.005V292.005H816V291.005Z" fill="#D0D5DD" fill-opacity="0.32" mask="url(#path-53-inside-25_322_281)"/>
<mask id="path-55-inside-26_322_281" fill="white">
<path d="M816 195.005H912V291.005H816V195.005Z"/>
</mask>
<path d="M912 291.005V292.005H913V291.005H912ZM912 195.005H911V291.005H912H913V195.005H912ZM912 291.005V290.005H816V291.005V292.005H912V291.005Z" fill="#D0D5DD" fill-opacity="0.32" mask="url(#path-55-inside-26_322_281)"/>
<mask id="path-57-inside-27_322_281" fill="white">
<path d="M912 195.005H1008V291.005H912V195.005Z"/>
</mask>
<path d="M1008 291.005V292.005H1009V291.005H1008ZM1008 195.005H1007V291.005H1008H1009V195.005H1008ZM1008 291.005V290.005H912V291.005V292.005H1008V291.005Z" fill="#D0D5DD" fill-opacity="0.32" mask="url(#path-57-inside-27_322_281)"/>
<mask id="path-59-inside-28_322_281" fill="white">
<path d="M1008 195.005H1104V291.005H1008V195.005Z"/>
</mask>
<path d="M1104 291.005V292.005H1105V291.005H1104ZM1104 195.005H1103V291.005H1104H1105V195.005H1104ZM1104 291.005V290.005H1008V291.005V292.005H1104V291.005Z" fill="#D0D5DD" fill-opacity="0.32" mask="url(#path-59-inside-28_322_281)"/>
<mask id="path-61-inside-29_322_281" fill="white">
<path d="M1104 195.005H1200V291.005H1104V195.005Z"/>
</mask>
<path d="M1104 195.005H1200V291.005H1104V195.005Z" fill="#F2F4F7" fill-opacity="0.1"/>
<path d="M1200 291.005V292.005H1201V291.005H1200ZM1200 195.005H1199V291.005H1200H1201V195.005H1200ZM1200 291.005V290.005H1104V291.005V292.005H1200V291.005Z" fill="#D0D5DD" fill-opacity="0.32" mask="url(#path-61-inside-29_322_281)"/>
<mask id="path-63-inside-30_322_281" fill="white">
<path d="M1200 195.005H1296V291.005H1200V195.005Z"/>
</mask>
<path d="M1296 291.005V292.005H1297V291.005H1296ZM1296 195.005H1295V291.005H1296H1297V195.005H1296ZM1296 291.005V290.005H1200V291.005V292.005H1296V291.005Z" fill="#D0D5DD" fill-opacity="0.32" mask="url(#path-63-inside-30_322_281)"/>
<mask id="path-65-inside-31_322_281" fill="white">
<path d="M1296 195.005H1392V291.005H1296V195.005Z"/>
</mask>
<path d="M1392 291.005V292.005H1393V291.005H1392ZM1392 195.005H1391V291.005H1392H1393V195.005H1392ZM1392 291.005V290.005H1296V291.005V292.005H1392V291.005Z" fill="#D0D5DD" fill-opacity="0.32" mask="url(#path-65-inside-31_322_281)"/>
<mask id="path-67-inside-32_322_281" fill="white">
<path d="M1392 195.005H1488V291.005H1392V195.005Z"/>
</mask>
<path d="M1488 291.005V292.005H1489V291.005H1488ZM1488 195.005H1487V291.005H1488H1489V195.005H1488ZM1488 291.005V290.005H1392V291.005V292.005H1488V291.005Z" fill="#D0D5DD" fill-opacity="0.32" mask="url(#path-67-inside-32_322_281)"/>
<mask id="path-69-inside-33_322_281" fill="white">
<path d="M-48 291.005H48V387.005H-48V291.005Z"/>
</mask>
<path d="M48 387.005V388.005H49V387.005H48ZM48 291.005H47V387.005H48H49V291.005H48ZM48 387.005V386.005H-48V387.005V388.005H48V387.005Z" fill="#D0D5DD" fill-opacity="0.32" mask="url(#path-69-inside-33_322_281)"/>
<mask id="path-71-inside-34_322_281" fill="white">
<path d="M48 291.005H144V387.005H48V291.005Z"/>
</mask>
<path d="M144 387.005V388.005H145V387.005H144ZM144 291.005H143V387.005H144H145V291.005H144ZM144 387.005V386.005H48V387.005V388.005H144V387.005Z" fill="#D0D5DD" fill-opacity="0.32" mask="url(#path-71-inside-34_322_281)"/>
<mask id="path-73-inside-35_322_281" fill="white">
<path d="M144 291.005H240V387.005H144V291.005Z"/>
</mask>
<path d="M240 387.005V388.005H241V387.005H240ZM240 291.005H239V387.005H240H241V291.005H240ZM240 387.005V386.005H144V387.005V388.005H240V387.005Z" fill="#D0D5DD" fill-opacity="0.32" mask="url(#path-73-inside-35_322_281)"/>
<mask id="path-75-inside-36_322_281" fill="white">
<path d="M240 291.005H336V387.005H240V291.005Z"/>
</mask>
<path d="M336 387.005V388.005H337V387.005H336ZM336 291.005H335V387.005H336H337V291.005H336ZM336 387.005V386.005H240V387.005V388.005H336V387.005Z" fill="#D0D5DD" fill-opacity="0.32" mask="url(#path-75-inside-36_322_281)"/>
<mask id="path-77-inside-37_322_281" fill="white">
<path d="M336 291.005H432V387.005H336V291.005Z"/>
</mask>
<path d="M432 387.005V388.005H433V387.005H432ZM432 291.005H431V387.005H432H433V291.005H432ZM432 387.005V386.005H336V387.005V388.005H432V387.005Z" fill="#D0D5DD" fill-opacity="0.32" mask="url(#path-77-inside-37_322_281)"/>
<mask id="path-79-inside-38_322_281" fill="white">
<path d="M432 291.005H528V387.005H432V291.005Z"/>
</mask>
<path d="M432 291.005H528V387.005H432V291.005Z" fill="#F2F4F7" fill-opacity="0.1"/>
<path d="M528 387.005V388.005H529V387.005H528ZM528 291.005H527V387.005H528H529V291.005H528ZM528 387.005V386.005H432V387.005V388.005H528V387.005Z" fill="#D0D5DD" fill-opacity="0.32" mask="url(#path-79-inside-38_322_281)"/>
<mask id="path-81-inside-39_322_281" fill="white">
<path d="M528 291.005H624V387.005H528V291.005Z"/>
</mask>
<path d="M624 387.005V388.005H625V387.005H624ZM624 291.005H623V387.005H624H625V291.005H624ZM624 387.005V386.005H528V387.005V388.005H624V387.005Z" fill="#D0D5DD" fill-opacity="0.32" mask="url(#path-81-inside-39_322_281)"/>
<mask id="path-83-inside-40_322_281" fill="white">
<path d="M624 291.005H720V387.005H624V291.005Z"/>
</mask>
<path d="M720 387.005V388.005H721V387.005H720ZM720 291.005H719V387.005H720H721V291.005H720ZM720 387.005V386.005H624V387.005V388.005H720V387.005Z" fill="#D0D5DD" fill-opacity="0.32" mask="url(#path-83-inside-40_322_281)"/>
<mask id="path-85-inside-41_322_281" fill="white">
<path d="M720 291.005H816V387.005H720V291.005Z"/>
</mask>
<path d="M816 387.005V388.005H817V387.005H816ZM816 291.005H815V387.005H816H817V291.005H816ZM816 387.005V386.005H720V387.005V388.005H816V387.005Z" fill="#D0D5DD" fill-opacity="0.32" mask="url(#path-85-inside-41_322_281)"/>
<mask id="path-87-inside-42_322_281" fill="white">
<path d="M816 291.005H912V387.005H816V291.005Z"/>
</mask>
<path d="M816 291.005H912V387.005H816V291.005Z" fill="#F2F4F7" fill-opacity="0.1"/>
<path d="M912 387.005V388.005H913V387.005H912ZM912 291.005H911V387.005H912H913V291.005H912ZM912 387.005V386.005H816V387.005V388.005H912V387.005Z" fill="#D0D5DD" fill-opacity="0.32" mask="url(#path-87-inside-42_322_281)"/>
<mask id="path-89-inside-43_322_281" fill="white">
<path d="M912 291.005H1008V387.005H912V291.005Z"/>
</mask>
<path d="M1008 387.005V388.005H1009V387.005H1008ZM1008 291.005H1007V387.005H1008H1009V291.005H1008ZM1008 387.005V386.005H912V387.005V388.005H1008V387.005Z" fill="#D0D5DD" fill-opacity="0.32" mask="url(#path-89-inside-43_322_281)"/>
<mask id="path-91-inside-44_322_281" fill="white">
<path d="M1008 291.005H1104V387.005H1008V291.005Z"/>
</mask>
<path d="M1104 387.005V388.005H1105V387.005H1104ZM1104 291.005H1103V387.005H1104H1105V291.005H1104ZM1104 387.005V386.005H1008V387.005V388.005H1104V387.005Z" fill="#D0D5DD" fill-opacity="0.32" mask="url(#path-91-inside-44_322_281)"/>
<mask id="path-93-inside-45_322_281" fill="white">
<path d="M1104 291.005H1200V387.005H1104V291.005Z"/>
</mask>
<path d="M1200 387.005V388.005H1201V387.005H1200ZM1200 291.005H1199V387.005H1200H1201V291.005H1200ZM1200 387.005V386.005H1104V387.005V388.005H1200V387.005Z" fill="#D0D5DD" fill-opacity="0.32" mask="url(#path-93-inside-45_322_281)"/>
<mask id="path-95-inside-46_322_281" fill="white">
<path d="M1200 291.005H1296V387.005H1200V291.005Z"/>
</mask>
<path d="M1296 387.005V388.005H1297V387.005H1296ZM1296 291.005H1295V387.005H1296H1297V291.005H1296ZM1296 387.005V386.005H1200V387.005V388.005H1296V387.005Z" fill="#D0D5DD" fill-opacity="0.32" mask="url(#path-95-inside-46_322_281)"/>
<mask id="path-97-inside-47_322_281" fill="white">
<path d="M1296 291.005H1392V387.005H1296V291.005Z"/>
</mask>
<path d="M1392 387.005V388.005H1393V387.005H1392ZM1392 291.005H1391V387.005H1392H1393V291.005H1392ZM1392 387.005V386.005H1296V387.005V388.005H1392V387.005Z" fill="#D0D5DD" fill-opacity="0.32" mask="url(#path-97-inside-47_322_281)"/>
<mask id="path-99-inside-48_322_281" fill="white">
<path d="M1392 291.005H1488V387.005H1392V291.005Z"/>
</mask>
<path d="M1488 387.005V388.005H1489V387.005H1488ZM1488 291.005H1487V387.005H1488H1489V291.005H1488ZM1488 387.005V386.005H1392V387.005V388.005H1488V387.005Z" fill="#D0D5DD" fill-opacity="0.32" mask="url(#path-99-inside-48_322_281)"/>
<mask id="path-101-inside-49_322_281" fill="white">
<path d="M-48 387.005H48V483.005H-48V387.005Z"/>
</mask>
<path d="M-48 387.005H48V483.005H-48V387.005Z" fill="#F2F4F7" fill-opacity="0.1"/>
<path d="M48 483.005V484.005H49V483.005H48ZM48 387.005H47V483.005H48H49V387.005H48ZM48 483.005V482.005H-48V483.005V484.005H48V483.005Z" fill="#D0D5DD" fill-opacity="0.32" mask="url(#path-101-inside-49_322_281)"/>
<mask id="path-103-inside-50_322_281" fill="white">
<path d="M48 387.005H144V483.005H48V387.005Z"/>
</mask>
<path d="M144 483.005V484.005H145V483.005H144ZM144 387.005H143V483.005H144H145V387.005H144ZM144 483.005V482.005H48V483.005V484.005H144V483.005Z" fill="#D0D5DD" fill-opacity="0.32" mask="url(#path-103-inside-50_322_281)"/>
<mask id="path-105-inside-51_322_281" fill="white">
<path d="M144 387.005H240V483.005H144V387.005Z"/>
</mask>
<path d="M240 483.005V484.005H241V483.005H240ZM240 387.005H239V483.005H240H241V387.005H240ZM240 483.005V482.005H144V483.005V484.005H240V483.005Z" fill="#D0D5DD" fill-opacity="0.32" mask="url(#path-105-inside-51_322_281)"/>
<mask id="path-107-inside-52_322_281" fill="white">
<path d="M240 387.005H336V483.005H240V387.005Z"/>
</mask>
<path d="M336 483.005V484.005H337V483.005H336ZM336 387.005H335V483.005H336H337V387.005H336ZM336 483.005V482.005H240V483.005V484.005H336V483.005Z" fill="#D0D5DD" fill-opacity="0.32" mask="url(#path-107-inside-52_322_281)"/>
<mask id="path-109-inside-53_322_281" fill="white">
<path d="M336 387.005H432V483.005H336V387.005Z"/>
</mask>
<path d="M432 483.005V484.005H433V483.005H432ZM432 387.005H431V483.005H432H433V387.005H432ZM432 483.005V482.005H336V483.005V484.005H432V483.005Z" fill="#D0D5DD" fill-opacity="0.32" mask="url(#path-109-inside-53_322_281)"/>
<mask id="path-111-inside-54_322_281" fill="white">
<path d="M432 387.005H528V483.005H432V387.005Z"/>
</mask>
<path d="M528 483.005V484.005H529V483.005H528ZM528 387.005H527V483.005H528H529V387.005H528ZM528 483.005V482.005H432V483.005V484.005H528V483.005Z" fill="#D0D5DD" fill-opacity="0.32" mask="url(#path-111-inside-54_322_281)"/>
<mask id="path-113-inside-55_322_281" fill="white">
<path d="M528 387.005H624V483.005H528V387.005Z"/>
</mask>
<path d="M624 483.005V484.005H625V483.005H624ZM624 387.005H623V483.005H624H625V387.005H624ZM624 483.005V482.005H528V483.005V484.005H624V483.005Z" fill="#D0D5DD" fill-opacity="0.32" mask="url(#path-113-inside-55_322_281)"/>
<mask id="path-115-inside-56_322_281" fill="white">
<path d="M624 387.005H720V483.005H624V387.005Z"/>
</mask>
<path d="M720 483.005V484.005H721V483.005H720ZM720 387.005H719V483.005H720H721V387.005H720ZM720 483.005V482.005H624V483.005V484.005H720V483.005Z" fill="#D0D5DD" fill-opacity="0.32" mask="url(#path-115-inside-56_322_281)"/>
<mask id="path-117-inside-57_322_281" fill="white">
<path d="M720 387.005H816V483.005H720V387.005Z"/>
</mask>
<path d="M816 483.005V484.005H817V483.005H816ZM816 387.005H815V483.005H816H817V387.005H816ZM816 483.005V482.005H720V483.005V484.005H816V483.005Z" fill="#D0D5DD" fill-opacity="0.32" mask="url(#path-117-inside-57_322_281)"/>
<mask id="path-119-inside-58_322_281" fill="white">
<path d="M816 387.005H912V483.005H816V387.005Z"/>
</mask>
<path d="M912 483.005V484.005H913V483.005H912ZM912 387.005H911V483.005H912H913V387.005H912ZM912 483.005V482.005H816V483.005V484.005H912V483.005Z" fill="#D0D5DD" fill-opacity="0.32" mask="url(#path-119-inside-58_322_281)"/>
<mask id="path-121-inside-59_322_281" fill="white">
<path d="M912 387.005H1008V483.005H912V387.005Z"/>
</mask>
<path d="M1008 483.005V484.005H1009V483.005H1008ZM1008 387.005H1007V483.005H1008H1009V387.005H1008ZM1008 483.005V482.005H912V483.005V484.005H1008V483.005Z" fill="#D0D5DD" fill-opacity="0.32" mask="url(#path-121-inside-59_322_281)"/>
<mask id="path-123-inside-60_322_281" fill="white">
<path d="M1008 387.005H1104V483.005H1008V387.005Z"/>
</mask>
<path d="M1104 483.005V484.005H1105V483.005H1104ZM1104 387.005H1103V483.005H1104H1105V387.005H1104ZM1104 483.005V482.005H1008V483.005V484.005H1104V483.005Z" fill="#D0D5DD" fill-opacity="0.32" mask="url(#path-123-inside-60_322_281)"/>
<mask id="path-125-inside-61_322_281" fill="white">
<path d="M1104 387.005H1200V483.005H1104V387.005Z"/>
</mask>
<path d="M1104 387.005H1200V483.005H1104V387.005Z" fill="#F2F4F7" fill-opacity="0.1"/>
<path d="M1200 483.005V484.005H1201V483.005H1200ZM1200 387.005H1199V483.005H1200H1201V387.005H1200ZM1200 483.005V482.005H1104V483.005V484.005H1200V483.005Z" fill="#D0D5DD" fill-opacity="0.32" mask="url(#path-125-inside-61_322_281)"/>
<mask id="path-127-inside-62_322_281" fill="white">
<path d="M1200 387.005H1296V483.005H1200V387.005Z"/>
</mask>
<path d="M1296 483.005V484.005H1297V483.005H1296ZM1296 387.005H1295V483.005H1296H1297V387.005H1296ZM1296 483.005V482.005H1200V483.005V484.005H1296V483.005Z" fill="#D0D5DD" fill-opacity="0.32" mask="url(#path-127-inside-62_322_281)"/>
<mask id="path-129-inside-63_322_281" fill="white">
<path d="M1296 387.005H1392V483.005H1296V387.005Z"/>
</mask>
<path d="M1392 483.005V484.005H1393V483.005H1392ZM1392 387.005H1391V483.005H1392H1393V387.005H1392ZM1392 483.005V482.005H1296V483.005V484.005H1392V483.005Z" fill="#D0D5DD" fill-opacity="0.32" mask="url(#path-129-inside-63_322_281)"/>
<mask id="path-131-inside-64_322_281" fill="white">
<path d="M1392 387.005H1488V483.005H1392V387.005Z"/>
</mask>
<path d="M1488 483.005V484.005H1489V483.005H1488ZM1488 387.005H1487V483.005H1488H1489V387.005H1488ZM1488 483.005V482.005H1392V483.005V484.005H1488V483.005Z" fill="#D0D5DD" fill-opacity="0.32" mask="url(#path-131-inside-64_322_281)"/>
<mask id="path-133-inside-65_322_281" fill="white">
<path d="M-48 483.005H48V579.005H-48V483.005Z"/>
</mask>
<path d="M48 579.005V580.005H49V579.005H48ZM48 483.005H47V579.005H48H49V483.005H48ZM48 579.005V578.005H-48V579.005V580.005H48V579.005Z" fill="#D0D5DD" fill-opacity="0.32" mask="url(#path-133-inside-65_322_281)"/>
<mask id="path-135-inside-66_322_281" fill="white">
<path d="M48 483.005H144V579.005H48V483.005Z"/>
</mask>
<path d="M144 579.005V580.005H145V579.005H144ZM144 483.005H143V579.005H144H145V483.005H144ZM144 579.005V578.005H48V579.005V580.005H144V579.005Z" fill="#D0D5DD" fill-opacity="0.32" mask="url(#path-135-inside-66_322_281)"/>
<mask id="path-137-inside-67_322_281" fill="white">
<path d="M144 483.005H240V579.005H144V483.005Z"/>
</mask>
<path d="M240 579.005V580.005H241V579.005H240ZM240 483.005H239V579.005H240H241V483.005H240ZM240 579.005V578.005H144V579.005V580.005H240V579.005Z" fill="#D0D5DD" fill-opacity="0.32" mask="url(#path-137-inside-67_322_281)"/>
<mask id="path-139-inside-68_322_281" fill="white">
<path d="M240 483.005H336V579.005H240V483.005Z"/>
</mask>
<path d="M336 579.005V580.005H337V579.005H336ZM336 483.005H335V579.005H336H337V483.005H336ZM336 579.005V578.005H240V579.005V580.005H336V579.005Z" fill="#D0D5DD" fill-opacity="0.32" mask="url(#path-139-inside-68_322_281)"/>
<mask id="path-141-inside-69_322_281" fill="white">
<path d="M336 483.005H432V579.005H336V483.005Z"/>
</mask>
<path d="M432 579.005V580.005H433V579.005H432ZM432 483.005H431V579.005H432H433V483.005H432ZM432 579.005V578.005H336V579.005V580.005H432V579.005Z" fill="#D0D5DD" fill-opacity="0.32" mask="url(#path-141-inside-69_322_281)"/>
<mask id="path-143-inside-70_322_281" fill="white">
<path d="M432 483.005H528V579.005H432V483.005Z"/>
</mask>
<path d="M528 579.005V580.005H529V579.005H528ZM528 483.005H527V579.005H528H529V483.005H528ZM528 579.005V578.005H432V579.005V580.005H528V579.005Z" fill="#D0D5DD" fill-opacity="0.32" mask="url(#path-143-inside-70_322_281)"/>
<mask id="path-145-inside-71_322_281" fill="white">
<path d="M528 483.005H624V579.005H528V483.005Z"/>
</mask>
<path d="M528 483.005H624V579.005H528V483.005Z" fill="#F2F4F7" fill-opacity="0.1"/>
<path d="M624 579.005V580.005H625V579.005H624ZM624 483.005H623V579.005H624H625V483.005H624ZM624 579.005V578.005H528V579.005V580.005H624V579.005Z" fill="#D0D5DD" fill-opacity="0.32" mask="url(#path-145-inside-71_322_281)"/>
<mask id="path-147-inside-72_322_281" fill="white">
<path d="M624 483.005H720V579.005H624V483.005Z"/>
</mask>
<path d="M720 579.005V580.005H721V579.005H720ZM720 483.005H719V579.005H720H721V483.005H720ZM720 579.005V578.005H624V579.005V580.005H720V579.005Z" fill="#D0D5DD" fill-opacity="0.32" mask="url(#path-147-inside-72_322_281)"/>
<mask id="path-149-inside-73_322_281" fill="white">
<path d="M720 483.005H816V579.005H720V483.005Z"/>
</mask>
<path d="M816 579.005V580.005H817V579.005H816ZM816 483.005H815V579.005H816H817V483.005H816ZM816 579.005V578.005H720V579.005V580.005H816V579.005Z" fill="#D0D5DD" fill-opacity="0.32" mask="url(#path-149-inside-73_322_281)"/>
<mask id="path-151-inside-74_322_281" fill="white">
<path d="M816 483.005H912V579.005H816V483.005Z"/>
</mask>
<path d="M912 579.005V580.005H913V579.005H912ZM912 483.005H911V579.005H912H913V483.005H912ZM912 579.005V578.005H816V579.005V580.005H912V579.005Z" fill="#D0D5DD" fill-opacity="0.32" mask="url(#path-151-inside-74_322_281)"/>
<mask id="path-153-inside-75_322_281" fill="white">
<path d="M912 483.005H1008V579.005H912V483.005Z"/>
</mask>
<path d="M1008 579.005V580.005H1009V579.005H1008ZM1008 483.005H1007V579.005H1008H1009V483.005H1008ZM1008 579.005V578.005H912V579.005V580.005H1008V579.005Z" fill="#D0D5DD" fill-opacity="0.32" mask="url(#path-153-inside-75_322_281)"/>
<mask id="path-155-inside-76_322_281" fill="white">
<path d="M1008 483.005H1104V579.005H1008V483.005Z"/>
</mask>
<path d="M1104 579.005V580.005H1105V579.005H1104ZM1104 483.005H1103V579.005H1104H1105V483.005H1104ZM1104 579.005V578.005H1008V579.005V580.005H1104V579.005Z" fill="#D0D5DD" fill-opacity="0.32" mask="url(#path-155-inside-76_322_281)"/>
<mask id="path-157-inside-77_322_281" fill="white">
<path d="M1104 483.005H1200V579.005H1104V483.005Z"/>
</mask>
<path d="M1200 579.005V580.005H1201V579.005H1200ZM1200 483.005H1199V579.005H1200H1201V483.005H1200ZM1200 579.005V578.005H1104V579.005V580.005H1200V579.005Z" fill="#D0D5DD" fill-opacity="0.32" mask="url(#path-157-inside-77_322_281)"/>
<mask id="path-159-inside-78_322_281" fill="white">
<path d="M1200 483.005H1296V579.005H1200V483.005Z"/>
</mask>
<path d="M1296 579.005V580.005H1297V579.005H1296ZM1296 483.005H1295V579.005H1296H1297V483.005H1296ZM1296 579.005V578.005H1200V579.005V580.005H1296V579.005Z" fill="#D0D5DD" fill-opacity="0.32" mask="url(#path-159-inside-78_322_281)"/>
<mask id="path-161-inside-79_322_281" fill="white">
<path d="M1296 483.005H1392V579.005H1296V483.005Z"/>
</mask>
<path d="M1392 579.005V580.005H1393V579.005H1392ZM1392 483.005H1391V579.005H1392H1393V483.005H1392ZM1392 579.005V578.005H1296V579.005V580.005H1392V579.005Z" fill="#D0D5DD" fill-opacity="0.32" mask="url(#path-161-inside-79_322_281)"/>
<mask id="path-163-inside-80_322_281" fill="white">
<path d="M1392 483.005H1488V579.005H1392V483.005Z"/>
</mask>
<path d="M1488 579.005V580.005H1489V579.005H1488ZM1488 483.005H1487V579.005H1488H1489V483.005H1488ZM1488 579.005V578.005H1392V579.005V580.005H1488V579.005Z" fill="#D0D5DD" fill-opacity="0.32" mask="url(#path-163-inside-80_322_281)"/>
<mask id="path-165-inside-81_322_281" fill="white">
<path d="M-48 579.005H48V675.005H-48V579.005Z"/>
</mask>
<path d="M48 675.005V676.005H49V675.005H48ZM48 579.005H47V675.005H48H49V579.005H48ZM48 675.005V674.005H-48V675.005V676.005H48V675.005Z" fill="#D0D5DD" fill-opacity="0.32" mask="url(#path-165-inside-81_322_281)"/>
<mask id="path-167-inside-82_322_281" fill="white">
<path d="M48 579.005H144V675.005H48V579.005Z"/>
</mask>
<path d="M144 675.005V676.005H145V675.005H144ZM144 579.005H143V675.005H144H145V579.005H144ZM144 675.005V674.005H48V675.005V676.005H144V675.005Z" fill="#D0D5DD" fill-opacity="0.32" mask="url(#path-167-inside-82_322_281)"/>
<mask id="path-169-inside-83_322_281" fill="white">
<path d="M144 579.005H240V675.005H144V579.005Z"/>
</mask>
<path d="M240 675.005V676.005H241V675.005H240ZM240 579.005H239V675.005H240H241V579.005H240ZM240 675.005V674.005H144V675.005V676.005H240V675.005Z" fill="#D0D5DD" fill-opacity="0.32" mask="url(#path-169-inside-83_322_281)"/>
<mask id="path-171-inside-84_322_281" fill="white">
<path d="M240 579.005H336V675.005H240V579.005Z"/>
</mask>
<path d="M240 579.005H336V675.005H240V579.005Z" fill="#F2F4F7" fill-opacity="0.1"/>
<path d="M336 675.005V676.005H337V675.005H336ZM336 579.005H335V675.005H336H337V579.005H336ZM336 675.005V674.005H240V675.005V676.005H336V675.005Z" fill="#D0D5DD" fill-opacity="0.32" mask="url(#path-171-inside-84_322_281)"/>
<mask id="path-173-inside-85_322_281" fill="white">
<path d="M336 579.005H432V675.005H336V579.005Z"/>
</mask>
<path d="M432 675.005V676.005H433V675.005H432ZM432 579.005H431V675.005H432H433V579.005H432ZM432 675.005V674.005H336V675.005V676.005H432V675.005Z" fill="#D0D5DD" fill-opacity="0.32" mask="url(#path-173-inside-85_322_281)"/>
<mask id="path-175-inside-86_322_281" fill="white">
<path d="M432 579.005H528V675.005H432V579.005Z"/>
</mask>
<path d="M528 675.005V676.005H529V675.005H528ZM528 579.005H527V675.005H528H529V579.005H528ZM528 675.005V674.005H432V675.005V676.005H528V675.005Z" fill="#D0D5DD" fill-opacity="0.32" mask="url(#path-175-inside-86_322_281)"/>
<mask id="path-177-inside-87_322_281" fill="white">
<path d="M528 579.005H624V675.005H528V579.005Z"/>
</mask>
<path d="M624 675.005V676.005H625V675.005H624ZM624 579.005H623V675.005H624H625V579.005H624ZM624 675.005V674.005H528V675.005V676.005H624V675.005Z" fill="#D0D5DD" fill-opacity="0.32" mask="url(#path-177-inside-87_322_281)"/>
<mask id="path-179-inside-88_322_281" fill="white">
<path d="M624 579.005H720V675.005H624V579.005Z"/>
</mask>
<path d="M720 675.005V676.005H721V675.005H720ZM720 579.005H719V675.005H720H721V579.005H720ZM720 675.005V674.005H624V675.005V676.005H720V675.005Z" fill="#D0D5DD" fill-opacity="0.32" mask="url(#path-179-inside-88_322_281)"/>
<mask id="path-181-inside-89_322_281" fill="white">
<path d="M720 579.005H816V675.005H720V579.005Z"/>
</mask>
<path d="M816 675.005V676.005H817V675.005H816ZM816 579.005H815V675.005H816H817V579.005H816ZM816 675.005V674.005H720V675.005V676.005H816V675.005Z" fill="#D0D5DD" fill-opacity="0.32" mask="url(#path-181-inside-89_322_281)"/>
<mask id="path-183-inside-90_322_281" fill="white">
<path d="M816 579.005H912V675.005H816V579.005Z"/>
</mask>
<path d="M816 579.005H912V675.005H816V579.005Z" fill="#F2F4F7" fill-opacity="0.1"/>
<path d="M912 675.005V676.005H913V675.005H912ZM912 579.005H911V675.005H912H913V579.005H912ZM912 675.005V674.005H816V675.005V676.005H912V675.005Z" fill="#D0D5DD" fill-opacity="0.32" mask="url(#path-183-inside-90_322_281)"/>
<mask id="path-185-inside-91_322_281" fill="white">
<path d="M912 579.005H1008V675.005H912V579.005Z"/>
</mask>
<path d="M1008 675.005V676.005H1009V675.005H1008ZM1008 579.005H1007V675.005H1008H1009V579.005H1008ZM1008 675.005V674.005H912V675.005V676.005H1008V675.005Z" fill="#D0D5DD" fill-opacity="0.32" mask="url(#path-185-inside-91_322_281)"/>
<mask id="path-187-inside-92_322_281" fill="white">
<path d="M1008 579.005H1104V675.005H1008V579.005Z"/>
</mask>
<path d="M1104 675.005V676.005H1105V675.005H1104ZM1104 579.005H1103V675.005H1104H1105V579.005H1104ZM1104 675.005V674.005H1008V675.005V676.005H1104V675.005Z" fill="#D0D5DD" fill-opacity="0.32" mask="url(#path-187-inside-92_322_281)"/>
<mask id="path-189-inside-93_322_281" fill="white">
<path d="M1104 579.005H1200V675.005H1104V579.005Z"/>
</mask>
<path d="M1200 675.005V676.005H1201V675.005H1200ZM1200 579.005H1199V675.005H1200H1201V579.005H1200ZM1200 675.005V674.005H1104V675.005V676.005H1200V675.005Z" fill="#D0D5DD" fill-opacity="0.32" mask="url(#path-189-inside-93_322_281)"/>
<mask id="path-191-inside-94_322_281" fill="white">
<path d="M1200 579.005H1296V675.005H1200V579.005Z"/>
</mask>
<path d="M1296 675.005V676.005H1297V675.005H1296ZM1296 579.005H1295V675.005H1296H1297V579.005H1296ZM1296 675.005V674.005H1200V675.005V676.005H1296V675.005Z" fill="#D0D5DD" fill-opacity="0.32" mask="url(#path-191-inside-94_322_281)"/>
<mask id="path-193-inside-95_322_281" fill="white">
<path d="M1296 579.005H1392V675.005H1296V579.005Z"/>
</mask>
<path d="M1392 675.005V676.005H1393V675.005H1392ZM1392 579.005H1391V675.005H1392H1393V579.005H1392ZM1392 675.005V674.005H1296V675.005V676.005H1392V675.005Z" fill="#D0D5DD" fill-opacity="0.32" mask="url(#path-193-inside-95_322_281)"/>
<mask id="path-195-inside-96_322_281" fill="white">
<path d="M1392 579.005H1488V675.005H1392V579.005Z"/>
</mask>
<path d="M1488 675.005V676.005H1489V675.005H1488ZM1488 579.005H1487V675.005H1488H1489V579.005H1488ZM1488 675.005V674.005H1392V675.005V676.005H1488V675.005Z" fill="#D0D5DD" fill-opacity="0.32" mask="url(#path-195-inside-96_322_281)"/>
<mask id="path-197-inside-97_322_281" fill="white">
<path d="M-48 675.005H48V771.005H-48V675.005Z"/>
</mask>
<path d="M48 771.005V772.005H49V771.005H48ZM48 675.005H47V771.005H48H49V675.005H48ZM48 771.005V770.005H-48V771.005V772.005H48V771.005Z" fill="#D0D5DD" fill-opacity="0.32" mask="url(#path-197-inside-97_322_281)"/>
<mask id="path-199-inside-98_322_281" fill="white">
<path d="M48 675.005H144V771.005H48V675.005Z"/>
</mask>
<path d="M48 675.005H144V771.005H48V675.005Z" fill="#F2F4F7" fill-opacity="0.1"/>
<path d="M144 771.005V772.005H145V771.005H144ZM144 675.005H143V771.005H144H145V675.005H144ZM144 771.005V770.005H48V771.005V772.005H144V771.005Z" fill="#D0D5DD" fill-opacity="0.32" mask="url(#path-199-inside-98_322_281)"/>
<mask id="path-201-inside-99_322_281" fill="white">
<path d="M144 675.005H240V771.005H144V675.005Z"/>
</mask>
<path d="M240 771.005V772.005H241V771.005H240ZM240 675.005H239V771.005H240H241V675.005H240ZM240 771.005V770.005H144V771.005V772.005H240V771.005Z" fill="#D0D5DD" fill-opacity="0.32" mask="url(#path-201-inside-99_322_281)"/>
<mask id="path-203-inside-100_322_281" fill="white">
<path d="M240 675.005H336V771.005H240V675.005Z"/>
</mask>
<path d="M336 771.005V772.005H337V771.005H336ZM336 675.005H335V771.005H336H337V675.005H336ZM336 771.005V770.005H240V771.005V772.005H336V771.005Z" fill="#D0D5DD" fill-opacity="0.32" mask="url(#path-203-inside-100_322_281)"/>
<mask id="path-205-inside-101_322_281" fill="white">
<path d="M336 675.005H432V771.005H336V675.005Z"/>
</mask>
<path d="M432 771.005V772.005H433V771.005H432ZM432 675.005H431V771.005H432H433V675.005H432ZM432 771.005V770.005H336V771.005V772.005H432V771.005Z" fill="#D0D5DD" fill-opacity="0.32" mask="url(#path-205-inside-101_322_281)"/>
<mask id="path-207-inside-102_322_281" fill="white">
<path d="M432 675.005H528V771.005H432V675.005Z"/>
</mask>
<path d="M528 771.005V772.005H529V771.005H528ZM528 675.005H527V771.005H528H529V675.005H528ZM528 771.005V770.005H432V771.005V772.005H528V771.005Z" fill="#D0D5DD" fill-opacity="0.32" mask="url(#path-207-inside-102_322_281)"/>
<mask id="path-209-inside-103_322_281" fill="white">
<path d="M528 675.005H624V771.005H528V675.005Z"/>
</mask>
<path d="M624 771.005V772.005H625V771.005H624ZM624 675.005H623V771.005H624H625V675.005H624ZM624 771.005V770.005H528V771.005V772.005H624V771.005Z" fill="#D0D5DD" fill-opacity="0.32" mask="url(#path-209-inside-103_322_281)"/>
<mask id="path-211-inside-104_322_281" fill="white">
<path d="M624 675.005H720V771.005H624V675.005Z"/>
</mask>
<path d="M720 771.005V772.005H721V771.005H720ZM720 675.005H719V771.005H720H721V675.005H720ZM720 771.005V770.005H624V771.005V772.005H720V771.005Z" fill="#D0D5DD" fill-opacity="0.32" mask="url(#path-211-inside-104_322_281)"/>
<mask id="path-213-inside-105_322_281" fill="white">
<path d="M720 675.005H816V771.005H720V675.005Z"/>
</mask>
<path d="M816 771.005V772.005H817V771.005H816ZM816 675.005H815V771.005H816H817V675.005H816ZM816 771.005V770.005H720V771.005V772.005H816V771.005Z" fill="#D0D5DD" fill-opacity="0.32" mask="url(#path-213-inside-105_322_281)"/>
<mask id="path-215-inside-106_322_281" fill="white">
<path d="M816 675.005H912V771.005H816V675.005Z"/>
</mask>
<path d="M912 771.005V772.005H913V771.005H912ZM912 675.005H911V771.005H912H913V675.005H912ZM912 771.005V770.005H816V771.005V772.005H912V771.005Z" fill="#D0D5DD" fill-opacity="0.32" mask="url(#path-215-inside-106_322_281)"/>
<mask id="path-217-inside-107_322_281" fill="white">
<path d="M912 675.005H1008V771.005H912V675.005Z"/>
</mask>
<path d="M1008 771.005V772.005H1009V771.005H1008ZM1008 675.005H1007V771.005H1008H1009V675.005H1008ZM1008 771.005V770.005H912V771.005V772.005H1008V771.005Z" fill="#D0D5DD" fill-opacity="0.32" mask="url(#path-217-inside-107_322_281)"/>
<mask id="path-219-inside-108_322_281" fill="white">
<path d="M1008 675.005H1104V771.005H1008V675.005Z"/>
</mask>
<path d="M1104 771.005V772.005H1105V771.005H1104ZM1104 675.005H1103V771.005H1104H1105V675.005H1104ZM1104 771.005V770.005H1008V771.005V772.005H1104V771.005Z" fill="#D0D5DD" fill-opacity="0.32" mask="url(#path-219-inside-108_322_281)"/>
<mask id="path-221-inside-109_322_281" fill="white">
<path d="M1104 675.005H1200V771.005H1104V675.005Z"/>
</mask>
<path d="M1200 771.005V772.005H1201V771.005H1200ZM1200 675.005H1199V771.005H1200H1201V675.005H1200ZM1200 771.005V770.005H1104V771.005V772.005H1200V771.005Z" fill="#D0D5DD" fill-opacity="0.32" mask="url(#path-221-inside-109_322_281)"/>
<mask id="path-223-inside-110_322_281" fill="white">
<path d="M1200 675.005H1296V771.005H1200V675.005Z"/>
</mask>
<path d="M1296 771.005V772.005H1297V771.005H1296ZM1296 675.005H1295V771.005H1296H1297V675.005H1296ZM1296 771.005V770.005H1200V771.005V772.005H1296V771.005Z" fill="#D0D5DD" fill-opacity="0.32" mask="url(#path-223-inside-110_322_281)"/>
<mask id="path-225-inside-111_322_281" fill="white">
<path d="M1296 675.005H1392V771.005H1296V675.005Z"/>
</mask>
<path d="M1296 675.005H1392V771.005H1296V675.005Z" fill="#F2F4F7" fill-opacity="0.1"/>
<path d="M1392 771.005V772.005H1393V771.005H1392ZM1392 675.005H1391V771.005H1392H1393V675.005H1392ZM1392 771.005V770.005H1296V771.005V772.005H1392V771.005Z" fill="#D0D5DD" fill-opacity="0.32" mask="url(#path-225-inside-111_322_281)"/>
<mask id="path-227-inside-112_322_281" fill="white">
<path d="M1392 675.005H1488V771.005H1392V675.005Z"/>
</mask>
<path d="M1488 771.005V772.005H1489V771.005H1488ZM1488 675.005H1487V771.005H1488H1489V675.005H1488ZM1488 771.005V770.005H1392V771.005V772.005H1488V771.005Z" fill="#D0D5DD" fill-opacity="0.32" mask="url(#path-227-inside-112_322_281)"/>
<mask id="path-229-inside-113_322_281" fill="white">
<path d="M-48 771.005H48V867.005H-48V771.005Z"/>
</mask>
<path d="M48 867.005V868.005H49V867.005H48ZM48 771.005H47V867.005H48H49V771.005H48ZM48 867.005V866.005H-48V867.005V868.005H48V867.005Z" fill="#D0D5DD" fill-opacity="0.32" mask="url(#path-229-inside-113_322_281)"/>
<mask id="path-231-inside-114_322_281" fill="white">
<path d="M48 771.005H144V867.005H48V771.005Z"/>
</mask>
<path d="M144 867.005V868.005H145V867.005H144ZM144 771.005H143V867.005H144H145V771.005H144ZM144 867.005V866.005H48V867.005V868.005H144V867.005Z" fill="#D0D5DD" fill-opacity="0.32" mask="url(#path-231-inside-114_322_281)"/>
<mask id="path-233-inside-115_322_281" fill="white">
<path d="M144 771.005H240V867.005H144V771.005Z"/>
</mask>
<path d="M240 867.005V868.005H241V867.005H240ZM240 771.005H239V867.005H240H241V771.005H240ZM240 867.005V866.005H144V867.005V868.005H240V867.005Z" fill="#D0D5DD" fill-opacity="0.32" mask="url(#path-233-inside-115_322_281)"/>
<mask id="path-235-inside-116_322_281" fill="white">
<path d="M240 771.005H336V867.005H240V771.005Z"/>
</mask>
<path d="M336 867.005V868.005H337V867.005H336ZM336 771.005H335V867.005H336H337V771.005H336ZM336 867.005V866.005H240V867.005V868.005H336V867.005Z" fill="#D0D5DD" fill-opacity="0.32" mask="url(#path-235-inside-116_322_281)"/>
<mask id="path-237-inside-117_322_281" fill="white">
<path d="M336 771.005H432V867.005H336V771.005Z"/>
</mask>
<path d="M432 867.005V868.005H433V867.005H432ZM432 771.005H431V867.005H432H433V771.005H432ZM432 867.005V866.005H336V867.005V868.005H432V867.005Z" fill="#D0D5DD" fill-opacity="0.32" mask="url(#path-237-inside-117_322_281)"/>
<mask id="path-239-inside-118_322_281" fill="white">
<path d="M432 771.005H528V867.005H432V771.005Z"/>
</mask>
<path d="M528 867.005V868.005H529V867.005H528ZM528 771.005H527V867.005H528H529V771.005H528ZM528 867.005V866.005H432V867.005V868.005H528V867.005Z" fill="#D0D5DD" fill-opacity="0.32" mask="url(#path-239-inside-118_322_281)"/>
<mask id="path-241-inside-119_322_281" fill="white">
<path d="M528 771.005H624V867.005H528V771.005Z"/>
</mask>
<path d="M528 771.005H624V867.005H528V771.005Z" fill="#F2F4F7" fill-opacity="0.1"/>
<path d="M624 867.005V868.005H625V867.005H624ZM624 771.005H623V867.005H624H625V771.005H624ZM624 867.005V866.005H528V867.005V868.005H624V867.005Z" fill="#D0D5DD" fill-opacity="0.32" mask="url(#path-241-inside-119_322_281)"/>
<mask id="path-243-inside-120_322_281" fill="white">
<path d="M624 771.005H720V867.005H624V771.005Z"/>
</mask>
<path d="M720 867.005V868.005H721V867.005H720ZM720 771.005H719V867.005H720H721V771.005H720ZM720 867.005V866.005H624V867.005V868.005H720V867.005Z" fill="#D0D5DD" fill-opacity="0.32" mask="url(#path-243-inside-120_322_281)"/>
<mask id="path-245-inside-121_322_281" fill="white">
<path d="M720 771.005H816V867.005H720V771.005Z"/>
</mask>
<path d="M816 867.005V868.005H817V867.005H816ZM816 771.005H815V867.005H816H817V771.005H816ZM816 867.005V866.005H720V867.005V868.005H816V867.005Z" fill="#D0D5DD" fill-opacity="0.32" mask="url(#path-245-inside-121_322_281)"/>
<mask id="path-247-inside-122_322_281" fill="white">
<path d="M816 771.005H912V867.005H816V771.005Z"/>
</mask>
<path d="M912 867.005V868.005H913V867.005H912ZM912 771.005H911V867.005H912H913V771.005H912ZM912 867.005V866.005H816V867.005V868.005H912V867.005Z" fill="#D0D5DD" fill-opacity="0.32" mask="url(#path-247-inside-122_322_281)"/>
<mask id="path-249-inside-123_322_281" fill="white">
<path d="M912 771.005H1008V867.005H912V771.005Z"/>
</mask>
<path d="M1008 867.005V868.005H1009V867.005H1008ZM1008 771.005H1007V867.005H1008H1009V771.005H1008ZM1008 867.005V866.005H912V867.005V868.005H1008V867.005Z" fill="#D0D5DD" fill-opacity="0.32" mask="url(#path-249-inside-123_322_281)"/>
<mask id="path-251-inside-124_322_281" fill="white">
<path d="M1008 771.005H1104V867.005H1008V771.005Z"/>
</mask>
<path d="M1104 867.005V868.005H1105V867.005H1104ZM1104 771.005H1103V867.005H1104H1105V771.005H1104ZM1104 867.005V866.005H1008V867.005V868.005H1104V867.005Z" fill="#D0D5DD" fill-opacity="0.32" mask="url(#path-251-inside-124_322_281)"/>
<mask id="path-253-inside-125_322_281" fill="white">
<path d="M1104 771.005H1200V867.005H1104V771.005Z"/>
</mask>
<path d="M1104 771.005H1200V867.005H1104V771.005Z" fill="#F2F4F7" fill-opacity="0.1"/>
<path d="M1200 867.005V868.005H1201V867.005H1200ZM1200 771.005H1199V867.005H1200H1201V771.005H1200ZM1200 867.005V866.005H1104V867.005V868.005H1200V867.005Z" fill="#D0D5DD" fill-opacity="0.32" mask="url(#path-253-inside-125_322_281)"/>
<mask id="path-255-inside-126_322_281" fill="white">
<path d="M1200 771.005H1296V867.005H1200V771.005Z"/>
</mask>
<path d="M1296 867.005V868.005H1297V867.005H1296ZM1296 771.005H1295V867.005H1296H1297V771.005H1296ZM1296 867.005V866.005H1200V867.005V868.005H1296V867.005Z" fill="#D0D5DD" fill-opacity="0.32" mask="url(#path-255-inside-126_322_281)"/>
<mask id="path-257-inside-127_322_281" fill="white">
<path d="M1296 771.005H1392V867.005H1296V771.005Z"/>
</mask>
<path d="M1392 867.005V868.005H1393V867.005H1392ZM1392 771.005H1391V867.005H1392H1393V771.005H1392ZM1392 867.005V866.005H1296V867.005V868.005H1392V867.005Z" fill="#D0D5DD" fill-opacity="0.32" mask="url(#path-257-inside-127_322_281)"/>
<mask id="path-259-inside-128_322_281" fill="white">
<path d="M1392 771.005H1488V867.005H1392V771.005Z"/>
</mask>
<path d="M1488 867.005V868.005H1489V867.005H1488ZM1488 771.005H1487V867.005H1488H1489V771.005H1488ZM1488 867.005V866.005H1392V867.005V868.005H1488V867.005Z" fill="#D0D5DD" fill-opacity="0.32" mask="url(#path-259-inside-128_322_281)"/>
</g>
<rect x="-239.5" y="99.5054" width="1919" height="1439" stroke="#D0D5DD" stroke-opacity="0.32"/>
</g>
</g>
<g opacity="0.5" filter="url(#filter2_f_322_281)">
<circle cx="141.5" cy="734.5" r="176.5" fill="#D2F801" fill-opacity="0.63"/>
</g>
<g opacity="0.5" filter="url(#filter3_f_322_281)">
<circle cx="1361.5" cy="654.5" r="176.5" fill="#D2F801" fill-opacity="0.63"/>
</g>
<rect width="275" height="1041" fill="url(#paint1_linear_322_281)"/>
<rect width="275" height="1041" transform="matrix(-1 0 0 1 1440 0)" fill="url(#paint2_linear_322_281)"/>
<g filter="url(#filter4_f_322_281)">
<circle cx="680" cy="613" r="395" fill="#1D9B5E" fill-opacity="0.06"/>
</g>
</g>
<defs>
<filter id="filter0_f_322_281" x="-125" y="-182" width="1153" height="1153" filterUnits="userSpaceOnUse" color-interpolation-filters="sRGB">
<feFlood flood-opacity="0" result="BackgroundImageFix"/>
<feBlend mode="normal" in="SourceGraphic" in2="BackgroundImageFix" result="shape"/>
<feGaussianBlur stdDeviation="200" result="effect1_foregroundBlur_322_281"/>
</filter>
<filter id="filter1_f_322_281" x="764.512" y="-470" width="1049.82" height="1049.82" filterUnits="userSpaceOnUse" color-interpolation-filters="sRGB">
<feFlood flood-opacity="0" result="BackgroundImageFix"/>
<feBlend mode="normal" in="SourceGraphic" in2="BackgroundImageFix" result="shape"/>
<feGaussianBlur stdDeviation="200" result="effect1_foregroundBlur_322_281"/>
</filter>
<filter id="filter2_f_322_281" x="-435" y="158" width="1153" height="1153" filterUnits="userSpaceOnUse" color-interpolation-filters="sRGB">
<feFlood flood-opacity="0" result="BackgroundImageFix"/>
<feBlend mode="normal" in="SourceGraphic" in2="BackgroundImageFix" result="shape"/>
<feGaussianBlur stdDeviation="200" result="effect1_foregroundBlur_322_281"/>
</filter>
<filter id="filter3_f_322_281" x="785" y="78" width="1153" height="1153" filterUnits="userSpaceOnUse" color-interpolation-filters="sRGB">
<feFlood flood-opacity="0" result="BackgroundImageFix"/>
<feBlend mode="normal" in="SourceGraphic" in2="BackgroundImageFix" result="shape"/>
<feGaussianBlur stdDeviation="200" result="effect1_foregroundBlur_322_281"/>
</filter>
<filter id="filter4_f_322_281" x="234.4" y="167.4" width="891.2" height="891.2" filterUnits="userSpaceOnUse" color-interpolation-filters="sRGB">
<feFlood flood-opacity="0" result="BackgroundImageFix"/>
<feBlend mode="normal" in="SourceGraphic" in2="BackgroundImageFix" result="shape"/>
<feGaussianBlur stdDeviation="25.3" result="effect1_foregroundBlur_322_281"/>
</filter>
<radialGradient id="paint0_radial_322_281" cx="0" cy="0" r="1" gradientUnits="userSpaceOnUse" gradientTransform="translate(720 -0.000142694) rotate(90) scale(1197 751.588)">
<stop/>
<stop offset="0.953125" stop-opacity="0"/>
</radialGradient>
<linearGradient id="paint1_linear_322_281" x1="275" y1="520.5" x2="0" y2="520.5" gradientUnits="userSpaceOnUse">
<stop stop-color="#023123" stop-opacity="0"/>
<stop offset="1" stop-color="#112328"/>
</linearGradient>
<linearGradient id="paint2_linear_322_281" x1="275" y1="520.5" x2="0" y2="520.5" gradientUnits="userSpaceOnUse">
<stop stop-color="#023123" stop-opacity="0"/>
<stop offset="1" stop-color="#112328"/>
</linearGradient>
<clipPath id="clip0_322_281">
<rect width="1440" height="795" fill="white"/>
</clipPath>
<clipPath id="clip1_322_281">
<rect width="1435.58" height="981.995" fill="white" transform="translate(2 99.0054)"/>
</clipPath>
<clipPath id="clip2_322_281">
<rect x="-240" y="99.0054" width="1920" height="1440" fill="white"/>
</clipPath>
</defs>
</svg>
