<svg width="40" height="40" viewBox="0 0 40 40" fill="none" xmlns="http://www.w3.org/2000/svg">
<rect width="40" height="40" rx="20" fill="white" fill-opacity="0.1"/>
<rect x="0.5" y="0.5" width="39" height="39" rx="19.5" stroke="white" stroke-opacity="0.24"/>
<path d="M23.4916 11.6665H16.5083C13.475 11.6665 11.6666 13.4748 11.6666 16.5082V23.4832C11.6666 26.5248 13.475 28.3332 16.5083 28.3332H23.4833C26.5166 28.3332 28.325 26.5248 28.325 23.4915V16.5082C28.3333 13.4748 26.525 11.6665 23.4916 11.6665ZM20 23.2332C18.2166 23.2332 16.7666 21.7832 16.7666 19.9998C16.7666 18.2165 18.2166 16.7665 20 16.7665C21.7833 16.7665 23.2333 18.2165 23.2333 19.9998C23.2333 21.7832 21.7833 23.2332 20 23.2332ZM24.9333 15.7332C24.8916 15.8332 24.8333 15.9248 24.7583 16.0082C24.675 16.0832 24.5833 16.1415 24.4833 16.1832C24.3833 16.2248 24.275 16.2498 24.1666 16.2498C23.9416 16.2498 23.7333 16.1665 23.575 16.0082C23.5 15.9248 23.4416 15.8332 23.4 15.7332C23.3583 15.6332 23.3333 15.5248 23.3333 15.4165C23.3333 15.3082 23.3583 15.1998 23.4 15.0998C23.4416 14.9915 23.5 14.9082 23.575 14.8248C23.7666 14.6332 24.0583 14.5415 24.325 14.5998C24.3833 14.6082 24.4333 14.6248 24.4833 14.6498C24.5333 14.6665 24.5833 14.6915 24.6333 14.7248C24.675 14.7498 24.7166 14.7915 24.7583 14.8248C24.8333 14.9082 24.8916 14.9915 24.9333 15.0998C24.975 15.1998 25 15.3082 25 15.4165C25 15.5248 24.975 15.6332 24.9333 15.7332Z" fill="white" fill-opacity="0.8"/>
</svg>
