<svg width="11" height="15" viewBox="0 0 11 15" fill="none" xmlns="http://www.w3.org/2000/svg">
<path d="M4.78571 3.3H6.21429V1.9H4.78571V3.3ZM5.5 7.5C4.59524 7.5 3.73214 7.31625 2.91071 6.94875C2.08929 6.58125 1.28571 6.17 0.5 5.715V4.7C0.5 4.315 0.639881 3.98542 0.919643 3.71125C1.1994 3.43708 1.53571 3.3 1.92857 3.3H3.35714V1.2C3.35714 1.00167 3.4256 0.835417 3.5625 0.70125C3.6994 0.567083 3.86905 0.5 4.07143 0.5H6.92857C7.13095 0.5 7.3006 0.567083 7.4375 0.70125C7.57441 0.835417 7.64286 1.00167 7.64286 1.2V3.3H9.07143C9.46429 3.3 9.8006 3.43708 10.0804 3.71125C10.3601 3.98542 10.5 4.315 10.5 4.7V5.715C9.71429 6.17 8.91072 6.58125 8.08929 6.94875C7.26786 7.31625 6.40476 7.5 5.5 7.5ZM1.92857 13.8C1.53571 13.8 1.1994 13.6629 0.919643 13.3888C0.639881 13.1146 0.5 12.785 0.5 12.4V7.29C1.16667 7.68667 1.85417 8.025 2.5625 8.305C3.27083 8.585 4.0119 8.77167 4.78571 8.865V8.9C4.78571 9.09833 4.85417 9.26458 4.99107 9.39875C5.12798 9.53292 5.29762 9.6 5.5 9.6C5.70238 9.6 5.87202 9.53292 6.00893 9.39875C6.14583 9.26458 6.21429 9.09833 6.21429 8.9V8.865C6.9881 8.77167 7.72917 8.585 8.4375 8.305C9.14583 8.025 9.83333 7.68667 10.5 7.29V12.4C10.5 12.785 10.3601 13.1146 10.0804 13.3888C9.8006 13.6629 9.46429 13.8 9.07143 13.8C9.07143 13.9983 9.00298 14.1646 8.86607 14.2987C8.72917 14.4329 8.55952 14.5 8.35714 14.5C8.16667 14.5 8.03274 14.4154 7.95536 14.2463C7.87798 14.0771 7.77381 13.9283 7.64286 13.8H3.35714C3.35714 13.9983 3.28869 14.1646 3.15179 14.2987C3.01488 14.4329 2.84524 14.5 2.64286 14.5C2.45238 14.5 2.31845 14.4154 2.24107 14.2463C2.16369 14.0771 2.05952 13.9283 1.92857 13.8Z" fill="#75FF8C"/>
</svg>
