<svg width="251" height="33" viewBox="0 0 251 33" fill="none" xmlns="http://www.w3.org/2000/svg">
<path fill-rule="evenodd" clip-rule="evenodd" d="M189.233 0.14841C153.945 0.523183 143.856 0.766981 124.276 1.71867C103.986 2.70491 89.4648 3.69353 66.4248 5.65734C61.0836 6.11259 55.3646 6.54463 48.66 6.99925C24.0313 8.66924 19.2386 9.11424 11.2768 10.4697C7.33191 11.1415 3.9203 11.6064 2.00819 11.7331C0.30818 11.8456 0 11.9164 0 12.1946C0 12.4405 2.71894 12.6559 4.20608 12.5278C4.73902 12.482 6.18291 12.3698 7.41486 12.2787C8.64681 12.1875 11.3579 11.9428 13.4394 11.7348C18.3411 11.2448 20.6946 11.0904 29.1188 10.7055C43.2807 10.0585 53.979 9.43678 67.12 8.49708C71.9628 8.15071 78.3929 7.6909 81.409 7.47518C104.284 5.83897 132.227 4.37995 149.301 3.93038C170.021 3.38455 234.346 2.902 233.259 3.30029C232.829 3.45825 225.468 4.63306 221.056 5.24816C217.002 5.81324 210.231 6.62827 201.901 7.5536C197.95 7.9926 192.528 8.60013 189.851 8.90374C179.797 10.0445 176.486 10.3982 170.774 10.9425C144.458 13.4495 127.076 15.634 102.881 19.4745C88.5002 21.7573 76.7129 24.3778 63.5587 28.2169C56.0798 30.3996 55.3512 30.7873 56.0873 32.1925C56.5663 33.1068 60.3398 33.2253 67.9509 32.5649C81.8601 31.3582 94.9308 30.4223 107.593 29.7264C115.535 29.29 116.587 29.2167 124.662 28.5392C127.679 28.2862 132.892 27.9163 136.248 27.7175L142.35 27.356L134.24 27.2135C121.951 26.9975 108.768 27.0106 104.426 27.2432C90.0523 28.0132 82.2342 28.6059 69.4641 29.8934C66.4203 30.2003 63.8525 30.425 63.7576 30.3928C62.8431 30.0813 83.3123 25.3748 93.0772 23.6513C115.12 19.7605 137.82 16.8574 172.705 13.4676C175.891 13.158 182.286 12.4807 186.916 11.9627C191.547 11.4445 198.846 10.6286 203.136 10.1494C219.651 8.3052 224.571 7.6183 240.442 4.94124C250.608 3.22659 250.662 3.21192 250.939 2.08429C251.243 0.844463 250.429 0.281912 248.096 0.121115C245.88 -0.0317925 204.385 -0.0125452 189.233 0.14841ZM143.008 27.2308C143.2 27.2686 143.479 27.2671 143.626 27.2277C143.774 27.1882 143.617 27.1573 143.277 27.159C142.937 27.1608 142.816 27.1931 143.008 27.2308Z" fill="#A2DE49"/>
</svg>
