<svg width="40" height="40" viewBox="0 0 40 40" fill="none" xmlns="http://www.w3.org/2000/svg">
<rect width="40" height="40" rx="20" fill="white" fill-opacity="0.1"/>
<rect x="0.5" y="0.5" width="39" height="39" rx="19.5" stroke="white" stroke-opacity="0.24"/>
<path d="M29.1923 16.0671L26.8563 18.403C26.3845 23.8733 21.7712 28.1249 16.2501 28.1249C15.1157 28.1249 14.1806 27.9452 13.4704 27.5905C12.8978 27.3038 12.6634 26.9967 12.6048 26.9092C12.5525 26.8309 12.5187 26.7417 12.5057 26.6485C12.4928 26.5552 12.5011 26.4602 12.53 26.3706C12.5589 26.2809 12.6077 26.199 12.6728 26.1309C12.7378 26.0628 12.8174 26.0102 12.9056 25.9772C12.9259 25.9694 14.7993 25.2499 15.9892 23.8803C15.3293 23.3378 14.7533 22.7007 14.2798 21.9897C13.311 20.5514 12.2267 18.053 12.561 14.3194C12.5716 14.2008 12.6159 14.0876 12.6887 13.9933C12.7614 13.899 12.8596 13.8274 12.9716 13.787C13.0837 13.7467 13.2049 13.7391 13.3211 13.7653C13.4373 13.7916 13.5436 13.8504 13.6274 13.935C13.6548 13.9624 16.2274 16.521 19.3728 17.3506V16.8749C19.3716 16.376 19.4702 15.8818 19.6629 15.4216C19.8555 14.9614 20.1383 14.5444 20.4946 14.1952C20.8406 13.8497 21.2524 13.5769 21.7055 13.3931C22.1586 13.2093 22.644 13.1181 23.1329 13.1249C23.7888 13.1313 24.4319 13.3074 24.9996 13.636C25.5673 13.9645 26.0404 14.4344 26.3728 14.9999H28.7501C28.8738 14.9998 28.9947 15.0364 29.0976 15.105C29.2005 15.1737 29.2806 15.2714 29.328 15.3856C29.3753 15.4999 29.3877 15.6256 29.3636 15.7469C29.3394 15.8682 29.2798 15.9796 29.1923 16.0671Z" fill="white" fill-opacity="0.8"/>
</svg>
