<svg width="19" height="15" viewBox="0 0 19 15" fill="none" xmlns="http://www.w3.org/2000/svg">
<path d="M2.116 14.5C1.65533 14.5 1.271 14.346 0.963 14.038C0.655 13.73 0.500667 13.3453 0.5 12.884V2.116C0.5 1.65533 0.654333 1.271 0.963 0.963C1.27167 0.655 1.65567 0.500667 2.115 0.5H16.885C17.345 0.5 17.729 0.654333 18.037 0.963C18.345 1.27167 18.4993 1.656 18.5 2.116V12.885C18.5 13.345 18.3457 13.7293 18.037 14.038C17.7283 14.3467 17.3443 14.5007 16.885 14.5H2.116ZM9.5 7.616L1.5 2.385V12.885C1.5 13.0643 1.55767 13.2117 1.673 13.327C1.78833 13.4423 1.936 13.5 2.116 13.5H16.885C17.0643 13.5 17.2117 13.4423 17.327 13.327C17.4423 13.2117 17.5 13.064 17.5 12.884V2.384L9.5 7.616ZM9.5 6.5L17.192 1.5H1.808L9.5 6.5ZM1.5 2.385V1.5V12.885C1.5 13.0643 1.55767 13.2117 1.673 13.327C1.78833 13.4423 1.936 13.5 2.116 13.5H1.5V2.385Z" fill="#023123"/>
</svg>
