<svg width="11" height="11" viewBox="0 0 11 11" fill="none" xmlns="http://www.w3.org/2000/svg">
<path fill-rule="evenodd" clip-rule="evenodd" d="M0.50125 3.625H10.4987C10.4912 2.26562 10.4313 1.52938 9.95063 1.04938C9.40188 0.5 8.5175 0.5 6.75 0.5H4.25C2.4825 0.5 1.59813 0.5 1.04938 1.04938C0.56875 1.52938 0.50875 2.26562 0.50125 3.625ZM10.5 4.875H0.5V6.75C0.5 8.5175 0.5 9.40188 1.04938 9.95063C1.59813 10.5 2.4825 10.5 4.25 10.5H6.75C8.5175 10.5 9.40188 10.5 9.95063 9.95063C10.5 9.40188 10.5 8.5175 10.5 6.75V4.875Z" fill="#75FF8C"/>
</svg>
